<?xml version="1.0" encoding="UTF-8" standalone="no"?>
<svg
   xmlns:dc="http://purl.org/dc/elements/1.1/"
   xmlns:cc="http://creativecommons.org/ns#"
   xmlns:rdf="http://www.w3.org/1999/02/22-rdf-syntax-ns#"
   xmlns:svg="http://www.w3.org/2000/svg"
   xmlns="http://www.w3.org/2000/svg"
   xmlns:sodipodi="http://sodipodi.sourceforge.net/DTD/sodipodi-0.dtd"
   xmlns:inkscape="http://www.inkscape.org/namespaces/inkscape"
   width="50"
   height="50"
   viewBox="0 0 50 50"
   version="1.1"
   id="svg17"
   sodipodi:docname="humidity.svg"
   style="fill:none"
   inkscape:version="0.92.5 (2060ec1f9f, 2020-04-08)">
  <metadata
     id="metadata21">
    <rdf:RDF>
      <cc:Work
         rdf:about="">
        <dc:format>image/svg+xml</dc:format>
        <dc:type
           rdf:resource="http://purl.org/dc/dcmitype/StillImage" />
        <dc:title></dc:title>
      </cc:Work>
    </rdf:RDF>
  </metadata>
  <sodipodi:namedview
     pagecolor="#ffffff"
     bordercolor="#666666"
     borderopacity="1"
     objecttolerance="10"
     gridtolerance="10"
     guidetolerance="10"
     inkscape:pageopacity="0"
     inkscape:pageshadow="2"
     inkscape:window-width="1920"
     inkscape:window-height="1028"
     id="namedview19"
     showgrid="false"
     inkscape:zoom="5.6635251"
     inkscape:cx="11.968689"
     inkscape:cy="5.0020603"
     inkscape:window-x="1920"
     inkscape:window-y="0"
     inkscape:window-maximized="1"
     inkscape:current-layer="svg17" />
  <g
     clip-path="url(#clip0_1_200)"
     id="g10"
     transform="matrix(0.54427248,0,0,0.54427248,3.6016069,2.8549415)">
    <path
       d="M 52.2107,53.7638 C 51.8466,67.8574 42.6728,79.0225 31.7123,78.7301 20.7787,78.4257 12.2019,66.7436 12.5719,52.6639 12.936,38.5703 33.4977,1.47797 33.4977,1.47797 c 0,0 19.0771,38.19233 18.713,52.28583 z"
       id="path2"
       inkscape:connector-curvature="0"
       style="fill:#ffffff" />
    <path
       d="M 49.3575,54.4886 C 49.0392,66.5811 41.154,76.175 31.7518,75.923 22.3631,75.665 15.0082,65.6443 15.3072,53.5441 15.6331,41.4317 33.271,9.5683 33.271,9.5683 c 0,0 16.3987,32.8139 16.0939,44.9003 z"
       id="path4"
       inkscape:connector-curvature="0"
       style="fill:#ffffff" />
    <path
       d="M 68.9329,51.9965 C 68.6432,63.2144 61.3413,72.1014 52.6171,71.8687 43.9144,71.6264 37.0876,62.328 37.3821,51.1211 37.6718,39.9031 54.038,10.3791 54.038,10.3791 c 0,0 15.1847,30.3995 14.8949,41.6174 z"
       id="path6"
       inkscape:connector-curvature="0"
       style="fill:#ffffff" />
    <path
       d="M 66.6619,52.5734 C 66.4086,62.1985 60.1323,69.8349 52.6485,69.6344 45.1755,69.429 39.3213,61.453 39.5592,51.8217 c 0.2594,-9.641 14.2984,-35.0031 14.2984,-35.0031 0,0 13.0528,26.1186 12.8102,35.7389 z"
       id="path8"
       inkscape:connector-curvature="0"
       style="fill:#ffffff" />
  </g>
  <defs
     id="defs15">
    <clipPath
       id="clip0_1_200">
      <rect
         width="92"
         height="106"
         id="rect12"
         x="0"
         y="0"
         style="fill:#ffffff" />
    </clipPath>
    <clipPath
       id="clip0_1_200-9">
      <rect
         width="92"
         height="106"
         id="rect12-4"
         x="0"
         y="0"
         style="fill:#ffffff" />
    </clipPath>
  </defs>
</svg>
