<?xml version="1.0" encoding="UTF-8" standalone="no"?>
<svg
   xmlns:dc="http://purl.org/dc/elements/1.1/"
   xmlns:cc="http://creativecommons.org/ns#"
   xmlns:rdf="http://www.w3.org/1999/02/22-rdf-syntax-ns#"
   xmlns:svg="http://www.w3.org/2000/svg"
   xmlns="http://www.w3.org/2000/svg"
   xmlns:sodipodi="http://sodipodi.sourceforge.net/DTD/sodipodi-0.dtd"
   xmlns:inkscape="http://www.inkscape.org/namespaces/inkscape"
   width="50"
   height="50"
   viewBox="0 0 50 50"
   version="1.1"
   id="svg12"
   sodipodi:docname="visibility.svg"
   style="fill:none"
   inkscape:version="0.92.5 (2060ec1f9f, 2020-04-08)">
  <metadata
     id="metadata18">
    <rdf:RDF>
      <cc:Work
         rdf:about="">
        <dc:format>image/svg+xml</dc:format>
        <dc:type
           rdf:resource="http://purl.org/dc/dcmitype/StillImage" />
        <dc:title></dc:title>
      </cc:Work>
    </rdf:RDF>
  </metadata>
  <defs
     id="defs16" />
  <sodipodi:namedview
     pagecolor="#ffffff"
     bordercolor="#666666"
     borderopacity="1"
     objecttolerance="10"
     gridtolerance="10"
     guidetolerance="10"
     inkscape:pageopacity="0"
     inkscape:pageshadow="2"
     inkscape:window-width="1920"
     inkscape:window-height="1028"
     id="namedview14"
     showgrid="false"
     inkscape:zoom="5.4252874"
     inkscape:cx="29.968323"
     inkscape:cy="51.380372"
     inkscape:window-x="1920"
     inkscape:window-y="0"
     inkscape:window-maximized="1"
     inkscape:current-layer="svg12" />
  <g
     id="g835"
     transform="matrix(0.62168565,0,0,0.62168565,2.0035662,-0.51263733)">
    <path
       id="path2"
       d="m 3.38582,37.4405 c 0,0 21.42688,-13.8416 33.38838,-13.7187 11.6702,0.1228 32.2703,14.0709 32.2703,14.0709"
       inkscape:connector-curvature="0"
       style="stroke:#ffffff;stroke-width:3.63651991" />
    <path
       id="path4"
       d="m 3.38582,38.1368 c 0,0 21.71038,14.9472 33.97908,14.7343 11.615,-0.2048 31.6796,-15.0785 31.6796,-15.0785"
       inkscape:connector-curvature="0"
       style="stroke:#ffffff;stroke-width:3.63651991" />
    <path
       id="path6"
       d="m 37.0735,46.1142 c 4.5578,0 8.2526,-3.524 8.2526,-7.871 0,-4.347 -3.6948,-7.8711 -8.2526,-7.8711 -4.5578,0 -8.2527,3.5241 -8.2527,7.8711 0,4.347 3.6949,7.871 8.2527,7.871 z"
       inkscape:connector-curvature="0"
       style="stroke:#ffffff;stroke-width:4.02159023;stroke-linecap:round;stroke-linejoin:round" />
    <path
       style="stroke:#ffffff;stroke-width:2.32007003;stroke-linecap:round;stroke-linejoin:round"
       inkscape:connector-curvature="0"
       id="path8"
       d="m 4.3064871,39.479856 c 0.96549,0 1.74817,-0.7884 1.74817,-1.7609 0,-0.9726 -0.78268,-1.7609 -1.74817,-1.7609 -0.96548,0 -1.74817,0.7883 -1.74817,1.7609 0,0.9725 0.78269,1.7609 1.74817,1.7609 z" />
    <path
       id="path10"
       d="m 68.1625,39.5947 c 0.9655,0 1.7481,-0.7884 1.7481,-1.7609 0,-0.9726 -0.7826,-1.7609 -1.7481,-1.7609 -0.9655,0 -1.7482,0.7883 -1.7482,1.7609 0,0.9725 0.7827,1.7609 1.7482,1.7609 z"
       inkscape:connector-curvature="0"
       style="stroke:#ffffff;stroke-width:2.32007003;stroke-linecap:round;stroke-linejoin:round" />
  </g>
</svg>
