<svg width="744" height="623" viewBox="0 0 744 623" fill="none" xmlns="http://www.w3.org/2000/svg">
<path d="M12.1673 69.3585C-49.7733 88.3199 -125.068 124.408 -128.854 197.556C-122.108 202.062 -117.895 205.563 -117.895 213.69C-117.895 227.849 -131.659 236.253 -143.353 241.406C-163.788 250.411 -184.844 265.552 -192.216 287.395C-197.289 302.424 -202.082 319.416 -202.79 335.335C-203.474 350.724 -205.654 370.135 -201.661 385.019C-197.395 400.92 -181.162 406.115 -166.964 410.375C-149.508 415.611 -131.648 419.436 -114.2 424.746C-75.568 436.503 -53.1015 469.214 -25.5066 496.809C0.971573 523.287 26.8755 549.967 57.643 571.644C78.2814 586.184 97.2509 598.842 121.699 605.827C137.898 610.456 153.185 611.633 169.946 611.371C201.74 610.874 228.459 586.389 255.354 572.568C283.734 557.983 306.264 534.297 332.961 517.134C375.065 490.067 422.386 462.118 474.418 468.169C505.201 471.748 535.902 472.736 560.236 494.859C580.722 513.482 601.792 533.098 615.259 557.785C628.292 581.68 645.731 606.819 671.102 618.351C687.013 625.583 711.588 622.153 721.916 607.573C732.046 593.272 735.352 575.099 740.496 558.607C743.863 547.813 744.2 536.42 747.271 525.552C749.556 517.467 752.119 509.699 753.225 501.326C757.416 469.599 766.312 438.87 769.034 406.884C770.506 389.594 774.291 372.588 776.015 355.352C777.742 338.081 776.425 320.147 776.425 302.793C776.425 265.367 778.624 227.874 782.379 190.695C787.186 143.11 799.166 84.6868 781.968 38.1517C775.544 20.7673 766.932 9.05246 749.735 2.01757C730.883 -5.69463 702.46 10.7354 685.884 17.2103C641.636 34.4949 601.016 59.1545 559.415 81.7796C528.526 98.5786 495.755 115.614 461.483 124.381C441.228 129.562 423.145 134.543 402.149 136.083C379.897 137.717 357.813 135.527 335.63 134.749C299.706 133.488 265.195 126.021 230.923 114.731C195.909 103.197 160.247 92.3142 124.368 83.9353C86.7587 75.1523 50.9849 57.4755 12.1673 69.3585Z" fill="url(#paint0_linear_3_11)"/>
<defs>
<linearGradient id="paint0_linear_3_11" x1="293.466" y1="9.37948e-05" x2="340.5" y2="640.5" gradientUnits="userSpaceOnUse">
<stop offset="0.184743" stop-color="#00AAD4" stop-opacity="0.36"/>
<stop offset="0.760441" stop-color="#C4C4C4" stop-opacity="0.04"/>
</linearGradient>
</defs>
</svg>
