<?xml version="1.0" encoding="UTF-8" standalone="no"?>
<svg
   xmlns:dc="http://purl.org/dc/elements/1.1/"
   xmlns:cc="http://creativecommons.org/ns#"
   xmlns:rdf="http://www.w3.org/1999/02/22-rdf-syntax-ns#"
   xmlns:svg="http://www.w3.org/2000/svg"
   xmlns="http://www.w3.org/2000/svg"
   xmlns:sodipodi="http://sodipodi.sourceforge.net/DTD/sodipodi-0.dtd"
   xmlns:inkscape="http://www.inkscape.org/namespaces/inkscape"
   width="50"
   height="50"
   viewBox="0 0 50 50"
   version="1.1"
   id="svg6"
   sodipodi:docname="wind.svg"
   style="fill:none"
   inkscape:version="0.92.5 (2060ec1f9f, 2020-04-08)">
  <metadata
     id="metadata12">
    <rdf:RDF>
      <cc:Work
         rdf:about="">
        <dc:format>image/svg+xml</dc:format>
        <dc:type
           rdf:resource="http://purl.org/dc/dcmitype/StillImage" />
        <dc:title></dc:title>
      </cc:Work>
    </rdf:RDF>
  </metadata>
  <defs
     id="defs10" />
  <sodipodi:namedview
     pagecolor="#ffffff"
     bordercolor="#666666"
     borderopacity="1"
     objecttolerance="10"
     gridtolerance="10"
     guidetolerance="10"
     inkscape:pageopacity="0"
     inkscape:pageshadow="2"
     inkscape:window-width="1920"
     inkscape:window-height="1028"
     id="namedview8"
     showgrid="false"
     inkscape:zoom="2.4583333"
     inkscape:cx="50"
     inkscape:cy="-88.105855"
     inkscape:window-x="1920"
     inkscape:window-y="0"
     inkscape:window-maximized="1"
     inkscape:current-layer="svg6" />
  <g
     id="g826"
     transform="matrix(0.69585525,0,0,0.69585525,3.9740305,-80.242459)">
    <path
       style="stroke:#ffffff;stroke-width:3.67509007;stroke-linecap:round"
       inkscape:connector-curvature="0"
       id="path2"
       d="m 4.2303297,147.87196 c 0,0 24.9055503,-0.2929 42.7550503,-0.1979 3.8972,0.0396 7.9695,-2.9133 9.7887,-6.3331 0.6982,-1.4135 1.0451,-2.9864 1.0092,-4.5751 -0.0359,-1.5887 -0.4535,-3.1426 -1.2147,-4.5205 -0.8631,-1.4932 -2.081,-2.7305 -3.5367,-3.59279 -1.4556,-0.86231 -3.1001,-1.32075 -4.7754,-1.33112 -5.4423,-0.15833 -11.0522,6.17461 -6.4851,11.87431" />
    <path
       style="stroke:#ffffff;stroke-width:3.67343998;stroke-linecap:round"
       inkscape:connector-curvature="0"
       id="path4"
       d="m 4.4434497,155.37646 c 0,0 24.9055303,0.2929 42.7550303,0.1979 3.8972,-0.0396 7.9695,2.913 9.7887,6.3328 1.4234,2.6757 1.3397,6.4756 -0.2055,9.0959 -1.6213,2.7706 -4.4301,4.8131 -8.312,4.9239 -5.4424,0.1583 -11.0522,-6.1746 -6.4852,-11.8743" />
  </g>
</svg>
