<svg xmlns="http://www.w3.org/2000/svg" width="80" height="80" viewBox="0 0 21.167 21.167"><g style="display:inline;opacity:1"><g style="display:inline"><path d="M-60.441 189.473a5.27 4.837 0 0 0-4.362 2.124 2.531 2.323 0 0 0-1.295-.33 2.531 2.323 0 0 0-2.468 1.813 2.531 2.323 0 0 0-.204-.01 2.531 2.323 0 0 0-2.531 2.324 2.531 2.323 0 0 0 .018.26c-.026.019-.054.037-.08.057-.534.412-.853 1.172-.826 1.845.037.913.444 2.136 1.318 2.406 2.411.744 6.193.353 8.63.353 2.435 0 7.63.19 9.226-.353 1.596-.544 1.657-2.428 1.424-3.743-.146-.816-.808-1.548-1.55-1.973a2.531 2.323 0 0 0-2.528-2.239 2.531 2.323 0 0 0-.141.006 5.27 4.837 0 0 0-4.631-2.539z" style="display:inline;opacity:1;fill:#00222b;fill-opacity:1;stroke:none;stroke-width:3.239887;stroke-linecap:round;stroke-linejoin:round;stroke-miterlimit:4;stroke-dasharray:none;stroke-opacity:1;paint-order:stroke fill markers" transform="matrix(1.01592 0 0 1.0108 73.455 -185.75)"/><path d="M-60.56 189.76a5.008 4.597 0 0 0-4.144 2.017 2.405 2.208 0 0 0-1.23-.314 2.405 2.208 0 0 0-2.346 1.724 2.405 2.208 0 0 0-.194-.01 2.405 2.208 0 0 0-2.405 2.209 2.405 2.208 0 0 0 .017.246c-.025.02-.051.037-.076.056-.507.39-.81 1.113-.785 1.752.035.869.422 2.03 1.252 2.287 2.292.707 5.885.335 8.2.335 2.316 0 7.251.182 8.768-.335 1.518-.517 1.575-2.308 1.353-3.557-.137-.775-.767-1.47-1.472-1.874a2.405 2.208 0 0 0-2.402-2.128 2.405 2.208 0 0 0-.135.005 5.008 4.597 0 0 0-4.4-2.413z" style="opacity:1;fill:#00aad4;fill-opacity:1;stroke:none;stroke-width:3.07880592;stroke-linecap:round;stroke-linejoin:round;stroke-miterlimit:4;stroke-dasharray:none;stroke-opacity:1;paint-order:stroke fill markers" transform="matrix(1.01592 0 0 1.0108 73.455 -185.75)"/></g><text y="394.112" x="-140.834" style="font-style:normal;font-variant:normal;font-weight:700;font-stretch:normal;font-size:17.24584198px;line-height:1.25;font-family:Arial;-inkscape-font-specification:'Arial, Bold';font-variant-ligatures:normal;font-variant-caps:normal;font-variant-numeric:normal;font-feature-settings:normal;text-align:start;letter-spacing:0;word-spacing:0;writing-mode:lr-tb;text-anchor:start;fill:#00222b;fill-opacity:1;stroke:none;stroke-width:.4311479" xml:space="preserve" transform="matrix(.82867 0 0 .8245 126.94 -304.459)"><tspan style="font-style:normal;font-variant:normal;font-weight:700;font-stretch:normal;font-size:17.24584198px;font-family:Arial;-inkscape-font-specification:'Arial, Bold';font-variant-ligatures:normal;font-variant-caps:normal;font-variant-numeric:normal;font-feature-settings:normal;text-align:start;writing-mode:lr-tb;text-anchor:start;fill:#00222b;fill-opacity:1;stroke-width:.4311479" y="394.112" x="-140.834">?</tspan></text></g></svg>