<svg xmlns="http://www.w3.org/2000/svg" width="80" height="80" viewBox="0 0 21.167 21.167"><g style="display:inline;opacity:1"><path style="display:inline;opacity:1;fill:#000;fill-opacity:1;stroke:none;stroke-width:4.40422773;stroke-linecap:round;stroke-linejoin:round;stroke-miterlimit:4;stroke-dasharray:none;stroke-opacity:1;paint-order:stroke fill markers" d="M-207.942 190.896c-3.498 0-6.333 2.881-6.333 6.436.003 2.919 2.18 5.778 4.957 6.522-.822-1.418-1.497-3.33-1.5-4.963.002-3.147 1.598-6.086 4.255-7.835a6.238 6.238 0 0 0-1.379-.16z" transform="matrix(1.31683 0 0 -1.31683 288.283 270.425)"/><path style="display:inline;opacity:1;fill:#000;fill-opacity:1;stroke:none;stroke-width:4.35880804;stroke-linecap:round;stroke-linejoin:round;stroke-miterlimit:4;stroke-dasharray:none;stroke-opacity:1;paint-order:stroke fill markers" d="M-208.558 190.83c-3.461 0-6.267 2.851-6.268 6.368.003 2.89 2.158 5.719 4.907 6.456-.814-1.404-1.482-3.296-1.486-4.912.003-3.115 1.583-6.023 4.212-7.754a6.174 6.174 0 0 0-1.365-.159z" transform="matrix(1.31683 0 0 -1.31683 288.283 270.425)"/><path style="display:inline;opacity:1;fill:#fc0;fill-opacity:1;stroke:none;stroke-width:4.23528337;stroke-linecap:round;stroke-linejoin:round;stroke-miterlimit:4;stroke-dasharray:none;stroke-opacity:1;paint-order:stroke fill markers" d="M-208.495 191.052a6.09 6.189 0 0 0-6.09 6.188 6.09 6.189 0 0 0 4.536 5.977 9.214 9.074 0 0 1-1.213-4.477 9.214 9.074 0 0 1 4.093-7.534 6.09 6.189 0 0 0-1.326-.154z" transform="matrix(1.31683 0 0 -1.31683 288.283 270.425)"/><path style="opacity:1;fill:#000;fill-opacity:1;stroke:none;stroke-width:3.42994905;stroke-linecap:round;stroke-linejoin:round;stroke-miterlimit:4;stroke-dasharray:none;stroke-opacity:1;paint-order:stroke fill markers" d="m-214.702 191.201-1.203-.564-.695 1.132-.112-1.324-1.328-.036 1.09-.76-.632-1.167 1.202.564.695-1.131.112 1.323 1.328.037-1.09.758z" transform="scale(.96886) rotate(3.767 2713.216 3617.068)"/><path style="display:inline;opacity:1;fill:#fc0;fill-opacity:1;stroke:none;stroke-width:2.29458785;stroke-linecap:round;stroke-linejoin:round;stroke-miterlimit:4;stroke-dasharray:none;stroke-opacity:1;paint-order:stroke fill markers" d="m-215.18 190.751-.803-.377-.466.757-.075-.886-.888-.024.73-.508-.424-.781.805.378.465-.758.075.886.888.024-.73.508z" transform="scale(.96886) rotate(3.767 2713.216 3617.068)"/><g><path style="display:inline;opacity:1;fill:#000;fill-opacity:1;stroke:none;stroke-width:3.42994905;stroke-linecap:round;stroke-linejoin:round;stroke-miterlimit:4;stroke-dasharray:none;stroke-opacity:1;paint-order:stroke fill markers" d="m-214.702 191.201-1.203-.564-.695 1.132-.112-1.324-1.328-.036 1.09-.76-.632-1.167 1.202.564.695-1.131.112 1.323 1.328.037-1.09.758z" transform="matrix(1.3975 .09202 -.09202 1.3975 337.938 -231.831)"/><path style="display:inline;opacity:1;fill:#fc0;fill-opacity:1;stroke:none;stroke-width:2.29458785;stroke-linecap:round;stroke-linejoin:round;stroke-miterlimit:4;stroke-dasharray:none;stroke-opacity:1;paint-order:stroke fill markers" d="m-215.18 190.751-.803-.377-.466.757-.075-.886-.888-.024.73-.508-.424-.781.805.378.465-.758.075.886.888.024-.73.508z" transform="matrix(1.3975 .09202 -.09202 1.3975 337.938 -231.831)"/></g><g><path style="display:inline;opacity:1;fill:#000;fill-opacity:1;stroke:none;stroke-width:3.42994905;stroke-linecap:round;stroke-linejoin:round;stroke-miterlimit:4;stroke-dasharray:none;stroke-opacity:1;paint-order:stroke fill markers" d="m-214.702 191.201-1.203-.564-.695 1.132-.112-1.324-1.328-.036 1.09-.76-.632-1.167 1.202.564.695-1.131.112 1.323 1.328.037-1.09.758z" transform="matrix(1.2108 -.5153 .5153 1.2108 166.422 -326.436)"/><path style="display:inline;opacity:1;fill:#fc0;fill-opacity:1;stroke:none;stroke-width:2.29458785;stroke-linecap:round;stroke-linejoin:round;stroke-miterlimit:4;stroke-dasharray:none;stroke-opacity:1;paint-order:stroke fill markers" d="m-215.18 190.751-.803-.377-.466.757-.075-.886-.888-.024.73-.508-.424-.781.805.378.465-.758.075.886.888.024-.73.508z" transform="matrix(1.2108 -.5153 .5153 1.2108 166.422 -326.436)"/></g></g></svg>