<svg xmlns="http://www.w3.org/2000/svg" width="80" height="80" viewBox="0 0 21.167 21.167"><g style="display:inline;opacity:1"><g transform="matrix(.76508 0 0 .75873 159.194 -136.508)" style="display:inline"><ellipse style="display:inline;opacity:1;fill:#000;fill-opacity:1;stroke:none;stroke-width:3.41121197;stroke-linecap:round;stroke-linejoin:round;stroke-miterlimit:4;stroke-dasharray:none;stroke-opacity:1;paint-order:stroke fill markers" cx="-190.126" cy="194.38" rx="5.232" ry="5.316"/><ellipse style="opacity:1;fill:#fd5;fill-opacity:1;stroke:none;stroke-width:3.19849205;stroke-linecap:round;stroke-linejoin:round;stroke-miterlimit:4;stroke-dasharray:none;stroke-opacity:1;paint-order:stroke fill markers" cx="-190.126" cy="194.38" rx="4.905" ry="4.985"/><path style="display:inline;opacity:1;fill:#241c1c;fill-opacity:1;stroke:none;stroke-width:2.34789276;stroke-linecap:round;stroke-linejoin:round;stroke-miterlimit:4;stroke-dasharray:none;stroke-opacity:1;paint-order:stroke fill markers" d="m-189.347 188.914-2.102-.008.886-4.664z"/><path style="opacity:1;fill:#fd5;fill-opacity:1;stroke:none;stroke-width:1.7524389;stroke-linecap:round;stroke-linejoin:round;stroke-miterlimit:4;stroke-dasharray:none;stroke-opacity:1;paint-order:stroke fill markers" d="m-189.677 188.634-1.476-.007.622-3.701z"/><path style="display:inline;opacity:1;fill:#241c1c;fill-opacity:1;stroke:none;stroke-width:2.34789276;stroke-linecap:round;stroke-linejoin:round;stroke-miterlimit:4;stroke-dasharray:none;stroke-opacity:1;paint-order:stroke fill markers" d="m-187.177 189.646-1.965-.746 2.468-4.056z"/><path style="opacity:1;fill:#fd5;fill-opacity:1;stroke:none;stroke-width:1.7524389;stroke-linecap:round;stroke-linejoin:round;stroke-miterlimit:4;stroke-dasharray:none;stroke-opacity:1;paint-order:stroke fill markers" d="m-187.388 189.268-1.38-.525 1.883-3.246z"/><path style="display:inline;opacity:1;fill:#241c1c;fill-opacity:1;stroke:none;stroke-width:2.34789276;stroke-linecap:round;stroke-linejoin:round;stroke-miterlimit:4;stroke-dasharray:none;stroke-opacity:1;paint-order:stroke fill markers" d="m-185.535 191.209-1.433-1.538 4.005-2.548z"/><path style="opacity:1;fill:#fd5;fill-opacity:1;stroke:none;stroke-width:1.7524389;stroke-linecap:round;stroke-linejoin:round;stroke-miterlimit:4;stroke-dasharray:none;stroke-opacity:1;paint-order:stroke fill markers" d="m-185.557 190.776-1.006-1.08 3.123-2.08z"/><path style="display:inline;opacity:1;fill:#241c1c;fill-opacity:1;stroke:none;stroke-width:2.34789276;stroke-linecap:round;stroke-linejoin:round;stroke-miterlimit:4;stroke-dasharray:none;stroke-opacity:1;paint-order:stroke fill markers" d="m-184.681 193.348-.714-1.977 4.685-.769z"/><path style="opacity:1;fill:#fd5;fill-opacity:1;stroke:none;stroke-width:1.7524389;stroke-linecap:round;stroke-linejoin:round;stroke-miterlimit:4;stroke-dasharray:none;stroke-opacity:1;paint-order:stroke fill markers" d="m-184.531 192.942-.5-1.389 3.689-.686z"/><path style="display:inline;opacity:1;fill:#241c1c;fill-opacity:1;stroke:none;stroke-width:2.34789276;stroke-linecap:round;stroke-linejoin:round;stroke-miterlimit:4;stroke-dasharray:none;stroke-opacity:1;paint-order:stroke fill markers" d="m-193.63 189.94 1.873-.952-2.889-3.767z"/><path style="opacity:1;fill:#fd5;fill-opacity:1;stroke:none;stroke-width:1.7524389;stroke-linecap:round;stroke-linejoin:round;stroke-miterlimit:4;stroke-dasharray:none;stroke-opacity:1;paint-order:stroke fill markers" d="m-193.461 189.542 1.315-.67-2.22-3.026z"/><path style="display:inline;opacity:1;fill:#241c1c;fill-opacity:1;stroke:none;stroke-width:2.34789276;stroke-linecap:round;stroke-linejoin:round;stroke-miterlimit:4;stroke-dasharray:none;stroke-opacity:1;paint-order:stroke fill markers" d="m-195.062 191.726 1.271-1.674-4.241-2.133z"/><path style="opacity:1;fill:#fd5;fill-opacity:1;stroke:none;stroke-width:1.7524389;stroke-linecap:round;stroke-linejoin:round;stroke-miterlimit:4;stroke-dasharray:none;stroke-opacity:1;paint-order:stroke fill markers" d="m-195.084 191.293.892-1.175-3.316-1.757z"/><path d="m-188.453 191.292-2.817-.452 2.168-6.069z" style="display:inline;opacity:1;fill:#241c1c;fill-opacity:1;stroke:none;stroke-width:3.18701863;stroke-linecap:round;stroke-linejoin:round;stroke-miterlimit:4;stroke-dasharray:none;stroke-opacity:1;paint-order:stroke fill markers" transform="scale(-.7367 .7367) rotate(69.962 -13.034 551.859)"/><path d="m-188.837 190.847-1.978-.319 1.612-4.832z" style="opacity:1;fill:#fd5;fill-opacity:1;stroke:none;stroke-width:2.37875223;stroke-linecap:round;stroke-linejoin:round;stroke-miterlimit:4;stroke-dasharray:none;stroke-opacity:1;paint-order:stroke fill markers" transform="scale(-.7367 .7367) rotate(69.962 -13.034 551.859)"/><path style="display:inline;opacity:1;fill:#241c1c;fill-opacity:1;stroke:none;stroke-width:2.34789276;stroke-linecap:round;stroke-linejoin:round;stroke-miterlimit:4;stroke-dasharray:none;stroke-opacity:1;paint-order:stroke fill markers" d="m-195.296 196.742-.413-2.061-4.406 1.769z"/><path style="opacity:1;fill:#fd5;fill-opacity:1;stroke:none;stroke-width:1.7524389;stroke-linecap:round;stroke-linejoin:round;stroke-miterlimit:4;stroke-dasharray:none;stroke-opacity:1;paint-order:stroke fill markers" d="m-195.634 196.472-.292-1.447-3.511 1.324z"/><path style="display:inline;opacity:1;fill:#241c1c;fill-opacity:1;stroke:none;stroke-width:2.34789276;stroke-linecap:round;stroke-linejoin:round;stroke-miterlimit:4;stroke-dasharray:none;stroke-opacity:1;paint-order:stroke fill markers" d="m-193.816 198.688-1.269-1.676-3.197 3.51z"/><path style="opacity:1;fill:#fd5;fill-opacity:1;stroke:none;stroke-width:1.75243878;stroke-linecap:round;stroke-linejoin:round;stroke-miterlimit:4;stroke-dasharray:none;stroke-opacity:1;paint-order:stroke fill markers" d="m-194.238 198.592-.892-1.176-2.585 2.72z"/><path style="display:inline;opacity:1;fill:#241c1c;fill-opacity:1;stroke:none;stroke-width:2.34789276;stroke-linecap:round;stroke-linejoin:round;stroke-miterlimit:4;stroke-dasharray:none;stroke-opacity:1;paint-order:stroke fill markers" d="m-191.577 199.837-1.873-.954-1.345 4.553z"/><path style="opacity:1;fill:#fd5;fill-opacity:1;stroke:none;stroke-width:1.75243878;stroke-linecap:round;stroke-linejoin:round;stroke-miterlimit:4;stroke-dasharray:none;stroke-opacity:1;paint-order:stroke fill markers" d="m-192 199.935-1.314-.669-1.14 3.576z"/><path style="display:inline;opacity:1;fill:#241c1c;fill-opacity:1;stroke:none;stroke-width:2.34789276;stroke-linecap:round;stroke-linejoin:round;stroke-miterlimit:4;stroke-dasharray:none;stroke-opacity:1;paint-order:stroke fill markers" d="m-189.218 199.96-2.098-.14.557 4.716z"/><path style="opacity:1;fill:#fd5;fill-opacity:1;stroke:none;stroke-width:1.75243878;stroke-linecap:round;stroke-linejoin:round;stroke-miterlimit:4;stroke-dasharray:none;stroke-opacity:1;paint-order:stroke fill markers" d="m-189.568 200.217-1.472-.097.36 3.735z"/><path d="m-193.987 189.935-2.392-1.556 4.441-4.67z" style="display:inline;opacity:1;fill:#241c1c;fill-opacity:1;stroke:none;stroke-width:3.18701863;stroke-linecap:round;stroke-linejoin:round;stroke-miterlimit:4;stroke-dasharray:none;stroke-opacity:1;paint-order:stroke fill markers" transform="matrix(.71676 .17024 .17024 -.71676 -80.401 368.345)"/><path d="m-194.158 189.372-1.679-1.093 3.432-3.765z" style="opacity:1;fill:#fd5;fill-opacity:1;stroke:none;stroke-width:2.37875223;stroke-linecap:round;stroke-linejoin:round;stroke-miterlimit:4;stroke-dasharray:none;stroke-opacity:1;paint-order:stroke fill markers" transform="matrix(.71676 .17024 .17024 -.71676 -80.401 368.345)"/><path style="display:inline;opacity:1;fill:#241c1c;fill-opacity:1;stroke:none;stroke-width:2.34789276;stroke-linecap:round;stroke-linejoin:round;stroke-miterlimit:4;stroke-dasharray:none;stroke-opacity:1;paint-order:stroke fill markers" d="m-184.687 195.58.053-2.102 4.644.984z"/><path style="opacity:1;fill:#fd5;fill-opacity:1;stroke:none;stroke-width:1.7524389;stroke-linecap:round;stroke-linejoin:round;stroke-miterlimit:4;stroke-dasharray:none;stroke-opacity:1;paint-order:stroke fill markers" d="m-184.4 195.255.038-1.475 3.687.7z"/><path style="display:inline;opacity:1;fill:#241c1c;fill-opacity:1;stroke:none;stroke-width:2.34789276;stroke-linecap:round;stroke-linejoin:round;stroke-miterlimit:4;stroke-dasharray:none;stroke-opacity:1;paint-order:stroke fill markers" d="m-185.5 197.64-1.525 1.447 3.842 2.788z"/><path style="opacity:1;fill:#fd5;fill-opacity:1;stroke:none;stroke-width:1.75243878;stroke-linecap:round;stroke-linejoin:round;stroke-miterlimit:4;stroke-dasharray:none;stroke-opacity:1;paint-order:stroke fill markers" d="m-185.549 198.07-1.07 1.016 2.99 2.268z"/><path style="display:inline;opacity:1;fill:#241c1c;fill-opacity:1;stroke:none;stroke-width:2.34789276;stroke-linecap:round;stroke-linejoin:round;stroke-miterlimit:4;stroke-dasharray:none;stroke-opacity:1;paint-order:stroke fill markers" d="m-184.598 195.659-.727 1.972 4.68.8z"/><path style="opacity:1;fill:#fd5;fill-opacity:1;stroke:none;stroke-width:1.75243878;stroke-linecap:round;stroke-linejoin:round;stroke-miterlimit:4;stroke-dasharray:none;stroke-opacity:1;paint-order:stroke fill markers" d="m-184.451 196.066-.51 1.385 3.685.71z"/></g><path style="display:inline;opacity:1;fill:#00222b;fill-opacity:1;stroke:none;stroke-width:3.239887;stroke-linecap:round;stroke-linejoin:round;stroke-miterlimit:4;stroke-dasharray:none;stroke-opacity:1;paint-order:stroke fill markers" d="M-60.441 189.473a5.27 4.837 0 0 0-4.362 2.124 2.531 2.323 0 0 0-1.295-.33 2.531 2.323 0 0 0-2.468 1.813 2.531 2.323 0 0 0-.204-.01 2.531 2.323 0 0 0-2.531 2.324 2.531 2.323 0 0 0 .018.26c-.026.019-.054.037-.08.057-.534.412-.853 1.172-.826 1.845.037.913.444 2.136 1.318 2.406 2.411.744 6.193.353 8.63.353 2.435 0 7.63.19 9.226-.353 1.596-.544 1.657-2.428 1.424-3.743-.146-.816-.808-1.548-1.55-1.973a2.531 2.323 0 0 0-2.528-2.239 2.531 2.323 0 0 0-.141.006 5.27 4.837 0 0 0-4.631-2.539z" transform="matrix(.89181 0 0 .89181 65.227 -159.835)"/><path style="opacity:1;fill:#00aad4;fill-opacity:1;stroke:none;stroke-width:3.07880592;stroke-linecap:round;stroke-linejoin:round;stroke-miterlimit:4;stroke-dasharray:none;stroke-opacity:1;paint-order:stroke fill markers" d="M-60.56 189.76a5.008 4.597 0 0 0-4.144 2.017 2.405 2.208 0 0 0-1.23-.314 2.405 2.208 0 0 0-2.346 1.724 2.405 2.208 0 0 0-.194-.01 2.405 2.208 0 0 0-2.405 2.209 2.405 2.208 0 0 0 .017.246c-.025.02-.051.037-.076.056-.507.39-.81 1.113-.785 1.752.035.869.422 2.03 1.252 2.287 2.292.707 5.885.335 8.2.335 2.316 0 7.251.182 8.768-.335 1.518-.517 1.575-2.308 1.353-3.557-.137-.775-.767-1.47-1.472-1.874a2.405 2.208 0 0 0-2.402-2.128 2.405 2.208 0 0 0-.135.005 5.008 4.597 0 0 0-4.4-2.413z" transform="matrix(.89181 0 0 .89181 65.227 -159.835)"/></g></svg>