<svg xmlns="http://www.w3.org/2000/svg" width="80" height="80" viewBox="0 0 21.167 21.167"><g style="display:inline;opacity:1"><g style="display:inline"><path style="display:inline;opacity:1;fill:#000;fill-opacity:1;stroke:none;stroke-width:4.40422773;stroke-linecap:round;stroke-linejoin:round;stroke-miterlimit:4;stroke-dasharray:none;stroke-opacity:1;paint-order:stroke fill markers" d="M-207.942 190.896c-3.498 0-6.333 2.881-6.333 6.436.003 2.919 2.18 5.778 4.957 6.522-.822-1.418-1.497-3.33-1.5-4.963.002-3.147 1.598-6.086 4.255-7.835a6.238 6.238 0 0 0-1.379-.16z" transform="matrix(.94554 -.1916 -.1916 -.94554 253.105 154.594)"/><path style="display:inline;opacity:1;fill:#000;fill-opacity:1;stroke:none;stroke-width:4.35880804;stroke-linecap:round;stroke-linejoin:round;stroke-miterlimit:4;stroke-dasharray:none;stroke-opacity:1;paint-order:stroke fill markers" d="M-208.558 190.83c-3.461 0-6.267 2.851-6.268 6.368.003 2.89 2.158 5.719 4.907 6.456-.814-1.404-1.482-3.296-1.486-4.912.003-3.115 1.583-6.023 4.212-7.754a6.174 6.174 0 0 0-1.365-.159z" transform="matrix(.94554 -.1916 -.1916 -.94554 253.105 154.594)"/><path style="display:inline;opacity:1;fill:#fc0;fill-opacity:1;stroke:none;stroke-width:4.23528337;stroke-linecap:round;stroke-linejoin:round;stroke-miterlimit:4;stroke-dasharray:none;stroke-opacity:1;paint-order:stroke fill markers" d="M-208.495 191.052a6.09 6.189 0 0 0-6.09 6.188 6.09 6.189 0 0 0 4.536 5.977 9.214 9.074 0 0 1-1.213-4.477 9.214 9.074 0 0 1 4.093-7.534 6.09 6.189 0 0 0-1.326-.154z" transform="matrix(.94554 -.1916 -.1916 -.94554 253.105 154.594)"/></g><path style="display:inline;opacity:1;fill:#00222b;fill-opacity:1;stroke:none;stroke-width:3.97199321;stroke-linecap:round;stroke-linejoin:round;stroke-miterlimit:4;stroke-dasharray:none;stroke-opacity:1;paint-order:stroke fill markers" d="M-213.973 217.032a6.46 5.93 0 0 0-5.346 2.603 3.103 2.849 0 0 0-1.588-.405 3.103 2.849 0 0 0-3.026 2.224 3.103 2.849 0 0 0-.25-.012 3.103 2.849 0 0 0-3.103 2.848 3.103 2.849 0 0 0 .022.318c-.032.024-.066.047-.098.072-.654.504-1.046 1.435-1.013 2.26.045 1.121.545 2.62 1.616 2.95 2.956.913 7.592.433 10.579.433 2.987 0 9.354.234 11.312-.432 1.957-.667 2.031-2.977 1.745-4.589-.178-1-.99-1.898-1.9-2.418a3.103 2.849 0 0 0-3.099-2.746 3.103 2.849 0 0 0-.173.007 6.46 5.93 0 0 0-5.678-3.112z" transform="matrix(.71495 0 0 .71495 163.35 -147.357)"/><path style="opacity:1;fill:#006680;fill-opacity:1;stroke:none;stroke-width:3.77451324;stroke-linecap:round;stroke-linejoin:round;stroke-miterlimit:4;stroke-dasharray:none;stroke-opacity:1;paint-order:stroke fill markers" d="M-214.117 217.382a6.14 5.635 0 0 0-5.081 2.474 2.949 2.707 0 0 0-1.51-.385 2.949 2.707 0 0 0-2.875 2.114 2.949 2.707 0 0 0-.238-.011 2.949 2.707 0 0 0-2.948 2.707 2.949 2.707 0 0 0 .021.302c-.03.023-.063.044-.094.068-.621.479-.993 1.364-.962 2.148.043 1.065.518 2.49 1.536 2.803 2.809.867 7.215.412 10.053.412 2.838 0 8.89.222 10.749-.412 1.86-.633 1.93-2.829 1.659-4.36-.17-.95-.94-1.803-1.806-2.298a2.949 2.707 0 0 0-2.945-2.609 2.949 2.707 0 0 0-.164.006 6.14 5.635 0 0 0-5.396-2.958z" transform="matrix(.71495 0 0 .71495 163.35 -147.357)"/></g></svg>