<svg xmlns="http://www.w3.org/2000/svg" width="80" height="80" viewBox="0 0 21.167 21.167"><g style="display:inline;opacity:1"><g style="display:inline"><path style="display:inline;opacity:1;fill:#00222b;fill-opacity:1;stroke:none;stroke-width:3.97199321;stroke-linecap:round;stroke-linejoin:round;stroke-miterlimit:4;stroke-dasharray:none;stroke-opacity:1;paint-order:stroke fill markers" d="M-185.76 268.652a6.46 5.93 0 0 0-5.347 2.604 3.103 2.849 0 0 0-1.588-.406 3.103 2.849 0 0 0-3.026 2.224 3.103 2.849 0 0 0-.25-.012 3.103 2.849 0 0 0-3.103 2.849 3.103 2.849 0 0 0 .022.318l-.098.07c-.654.505-1.046 1.437-1.013 2.262.045 1.12.545 2.619 1.616 2.95 2.956.912 7.592.432 10.58.432 2.986 0 9.353.235 11.31-.432 1.958-.667 2.032-2.977 1.746-4.588-.178-1.001-.99-1.899-1.9-2.42a3.103 2.849 0 0 0-3.099-2.745 3.103 2.849 0 0 0-.173.007 6.46 5.93 0 0 0-5.678-3.112z" transform="matrix(.69545 0 0 .66645 142.654 -174.25)"/><path style="opacity:1;fill:#0084a5;fill-opacity:1;stroke:none;stroke-width:3.77451324;stroke-linecap:round;stroke-linejoin:round;stroke-miterlimit:4;stroke-dasharray:none;stroke-opacity:1;paint-order:stroke fill markers" d="M-185.905 269.003a6.14 5.635 0 0 0-5.081 2.474 2.949 2.707 0 0 0-1.51-.386 2.949 2.707 0 0 0-2.874 2.114 2.949 2.707 0 0 0-.239-.011 2.949 2.707 0 0 0-2.948 2.707 2.949 2.707 0 0 0 .021.302c-.03.023-.063.044-.093.068-.622.479-.994 1.364-.963 2.148.043 1.065.518 2.49 1.536 2.804 2.809.867 7.215.41 10.053.41 2.838 0 8.89.223 10.749-.41 1.86-.634 1.93-2.83 1.659-4.36-.17-.952-.94-1.804-1.806-2.299a2.949 2.707 0 0 0-2.945-2.609 2.949 2.707 0 0 0-.164.006 6.14 5.635 0 0 0-5.396-2.958z" transform="matrix(.69545 0 0 .66645 142.654 -174.25)"/><g style="display:inline"><path d="M-60.441 189.473a5.27 4.837 0 0 0-4.362 2.124 2.531 2.323 0 0 0-1.295-.33 2.531 2.323 0 0 0-2.468 1.813 2.531 2.323 0 0 0-.204-.01 2.531 2.323 0 0 0-2.531 2.324 2.531 2.323 0 0 0 .018.26c-.026.019-.054.037-.08.057-.534.412-.853 1.172-.826 1.845.037.913.444 2.136 1.318 2.406 2.411.744 6.193.353 8.63.353 2.435 0 7.63.19 9.226-.353 1.596-.544 1.657-2.428 1.424-3.743-.146-.816-.808-1.548-1.55-1.973a2.531 2.323 0 0 0-2.528-2.239 2.531 2.323 0 0 0-.141.006 5.27 4.837 0 0 0-4.631-2.539z" style="display:inline;opacity:1;fill:#00222b;fill-opacity:1;stroke:none;stroke-width:3.239887;stroke-linecap:round;stroke-linejoin:round;stroke-miterlimit:4;stroke-dasharray:none;stroke-opacity:1;paint-order:stroke fill markers" transform="matrix(.8526 0 0 .81705 61.706 -148.95)"/><path d="M-60.56 189.76a5.008 4.597 0 0 0-4.144 2.017 2.405 2.208 0 0 0-1.23-.314 2.405 2.208 0 0 0-2.346 1.724 2.405 2.208 0 0 0-.194-.01 2.405 2.208 0 0 0-2.405 2.209 2.405 2.208 0 0 0 .017.246c-.025.02-.051.037-.076.056-.507.39-.81 1.113-.785 1.752.035.869.422 2.03 1.252 2.287 2.292.707 5.885.335 8.2.335 2.316 0 7.251.182 8.768-.335 1.518-.517 1.575-2.308 1.353-3.557-.137-.775-.767-1.47-1.472-1.874a2.405 2.208 0 0 0-2.402-2.128 2.405 2.208 0 0 0-.135.005 5.008 4.597 0 0 0-4.4-2.413z" style="opacity:1;fill:#00aad4;fill-opacity:1;stroke:none;stroke-width:3.07880592;stroke-linecap:round;stroke-linejoin:round;stroke-miterlimit:4;stroke-dasharray:none;stroke-opacity:1;paint-order:stroke fill markers" transform="matrix(.8526 0 0 .81705 61.706 -148.95)"/></g></g><path style="display:inline;opacity:1;fill:#00222b;fill-opacity:1;stroke:none;stroke-width:1.22040796;stroke-linecap:round;stroke-linejoin:round;stroke-miterlimit:4;stroke-dasharray:none;stroke-opacity:1;paint-order:stroke fill markers" d="M-183.128 309.274c-.398.843-1.266 1.27-1.94.953-.673-.318-.898-1.259-.5-2.102.397-.844 2.662-2.53 2.662-2.53s.175 2.835-.222 3.679z" transform="matrix(.71336 0 0 .68362 135.325 -193.252)"/><path style="opacity:1;fill:#00aad4;fill-opacity:1;stroke:none;stroke-width:1.04831386;stroke-linecap:round;stroke-linejoin:round;stroke-miterlimit:4;stroke-dasharray:none;stroke-opacity:1;paint-order:stroke fill markers" d="M-183.325 309.24c-.341.724-1.087 1.09-1.666.818-.579-.273-.771-1.081-.43-1.806.341-.724 2.287-2.173 2.287-2.173s.15 2.436-.191 3.16z" transform="matrix(.71336 0 0 .68362 135.325 -193.252)"/><path style="display:inline;opacity:1;fill:#00222b;fill-opacity:1;stroke:none;stroke-width:1.22040796;stroke-linecap:round;stroke-linejoin:round;stroke-miterlimit:4;stroke-dasharray:none;stroke-opacity:1;paint-order:stroke fill markers" d="M-178.95 308.466c-.398.843-1.266 1.27-1.94.953-.674-.318-.898-1.259-.5-2.102.396-.844 2.662-2.53 2.662-2.53s.174 2.835-.223 3.679z" transform="matrix(.71336 0 0 .68362 135.325 -193.252)"/><path style="opacity:1;fill:#00aad4;fill-opacity:1;stroke:none;stroke-width:1.04831386;stroke-linecap:round;stroke-linejoin:round;stroke-miterlimit:4;stroke-dasharray:none;stroke-opacity:1;paint-order:stroke fill markers" d="M-179.148 308.431c-.341.725-1.087 1.091-1.666.819-.578-.273-.77-1.081-.43-1.806.342-.724 2.287-2.173 2.287-2.173s.15 2.436-.19 3.16z" transform="matrix(.71336 0 0 .68362 135.325 -193.252)"/><path style="display:inline;opacity:1;fill:#00222b;fill-opacity:1;stroke:none;stroke-width:1.22040796;stroke-linecap:round;stroke-linejoin:round;stroke-miterlimit:4;stroke-dasharray:none;stroke-opacity:1;paint-order:stroke fill markers" d="M-175.986 311.368c-.398.843-1.266 1.27-1.94.953-.673-.318-.898-1.259-.5-2.102.397-.844 2.662-2.53 2.662-2.53s.175 2.835-.222 3.679z" transform="matrix(.71336 0 0 .68362 135.325 -193.252)"/><path style="opacity:1;fill:#00aad4;fill-opacity:1;stroke:none;stroke-width:1.04831386;stroke-linecap:round;stroke-linejoin:round;stroke-miterlimit:4;stroke-dasharray:none;stroke-opacity:1;paint-order:stroke fill markers" d="M-176.183 311.333c-.341.725-1.087 1.091-1.666.819-.579-.273-.771-1.081-.43-1.806.341-.724 2.287-2.173 2.287-2.173s.15 2.436-.191 3.16z" transform="matrix(.71336 0 0 .68362 135.325 -193.252)"/><path style="display:inline;opacity:1;fill:#00222b;fill-opacity:1;stroke:none;stroke-width:1.22040796;stroke-linecap:round;stroke-linejoin:round;stroke-miterlimit:4;stroke-dasharray:none;stroke-opacity:1;paint-order:stroke fill markers" d="M-171.547 309.775c-.397.844-1.266 1.27-1.94.953-.673-.317-.897-1.258-.5-2.102.397-.843 2.662-2.53 2.662-2.53s.175 2.836-.222 3.68z" transform="matrix(.71336 0 0 .68362 135.325 -193.252)"/><path style="opacity:1;fill:#00aad4;fill-opacity:1;stroke:none;stroke-width:1.04831386;stroke-linecap:round;stroke-linejoin:round;stroke-miterlimit:4;stroke-dasharray:none;stroke-opacity:1;paint-order:stroke fill markers" d="M-171.744 309.741c-.341.725-1.087 1.091-1.666.819-.579-.273-.771-1.081-.43-1.806.341-.725 2.287-2.173 2.287-2.173s.15 2.435-.191 3.16z" transform="matrix(.71336 0 0 .68362 135.325 -193.252)"/></g></svg>