<svg xmlns="http://www.w3.org/2000/svg" width="80" height="80" viewBox="0 0 21.167 21.167"><g style="display:inline;opacity:1"><g style="display:inline"><path style="display:inline;opacity:1;fill:#00222b;fill-opacity:1;stroke:none;stroke-width:3.97199321;stroke-linecap:round;stroke-linejoin:round;stroke-miterlimit:4;stroke-dasharray:none;stroke-opacity:1;paint-order:stroke fill markers" d="M-214.581 264.967a6.46 5.93 0 0 0-5.347 2.603 3.103 2.849 0 0 0-1.588-.405 3.103 2.849 0 0 0-3.025 2.224 3.103 2.849 0 0 0-.251-.012 3.103 2.849 0 0 0-3.103 2.848 3.103 2.849 0 0 0 .023.318c-.033.024-.067.047-.099.072-.654.504-1.046 1.435-1.013 2.26.045 1.12.545 2.62 1.616 2.95 2.956.913 7.593.433 10.58.433 2.986 0 9.354.234 11.311-.432 1.957-.667 2.032-2.977 1.745-4.589-.177-1-.99-1.898-1.9-2.418a3.103 2.849 0 0 0-3.098-2.746 3.103 2.849 0 0 0-.174.007 6.46 5.93 0 0 0-5.677-3.112z" transform="matrix(.6664 0 0 .6664 156.813 -171.497)"/><path style="opacity:1;fill:#004658;fill-opacity:1;stroke:none;stroke-width:3.77451324;stroke-linecap:round;stroke-linejoin:round;stroke-miterlimit:4;stroke-dasharray:none;stroke-opacity:1;paint-order:stroke fill markers" d="M-214.726 265.317a6.14 5.635 0 0 0-5.081 2.474 2.949 2.707 0 0 0-1.51-.385 2.949 2.707 0 0 0-2.874 2.114 2.949 2.707 0 0 0-.238-.011 2.949 2.707 0 0 0-2.949 2.707 2.949 2.707 0 0 0 .022.302c-.031.023-.064.044-.094.068-.622.479-.994 1.364-.962 2.148.042 1.065.517 2.49 1.535 2.803 2.81.867 7.215.412 10.053.412 2.838 0 8.89.222 10.75-.412 1.86-.633 1.93-2.829 1.658-4.36-.169-.95-.94-1.803-1.806-2.298a2.949 2.707 0 0 0-2.944-2.609 2.949 2.707 0 0 0-.165.006 6.14 5.635 0 0 0-5.395-2.958z" transform="matrix(.6664 0 0 .6664 156.813 -171.497)"/><g style="display:inline"><path d="M-213.973 217.032a6.46 5.93 0 0 0-5.346 2.603 3.103 2.849 0 0 0-1.588-.405 3.103 2.849 0 0 0-3.026 2.224 3.103 2.849 0 0 0-.25-.012 3.103 2.849 0 0 0-3.103 2.848 3.103 2.849 0 0 0 .022.318c-.032.024-.066.047-.098.072-.654.504-1.046 1.435-1.013 2.26.045 1.121.545 2.62 1.616 2.95 2.956.913 7.592.433 10.579.433 2.987 0 9.354.234 11.312-.432 1.957-.667 2.031-2.977 1.745-4.589-.178-1-.99-1.898-1.9-2.418a3.103 2.849 0 0 0-3.099-2.746 3.103 2.849 0 0 0-.173.007 6.46 5.93 0 0 0-5.678-3.112z" style="display:inline;opacity:1;fill:#00222b;fill-opacity:1;stroke:none;stroke-width:3.97199321;stroke-linecap:round;stroke-linejoin:round;stroke-miterlimit:4;stroke-dasharray:none;stroke-opacity:1;paint-order:stroke fill markers" transform="matrix(.6664 0 0 .6664 152.272 -138.797)"/><path d="M-214.117 217.382a6.14 5.635 0 0 0-5.081 2.474 2.949 2.707 0 0 0-1.51-.385 2.949 2.707 0 0 0-2.875 2.114 2.949 2.707 0 0 0-.238-.011 2.949 2.707 0 0 0-2.948 2.707 2.949 2.707 0 0 0 .021.302c-.03.023-.063.044-.094.068-.621.479-.993 1.364-.962 2.148.043 1.065.518 2.49 1.536 2.803 2.809.867 7.215.412 10.053.412 2.838 0 8.89.222 10.749-.412 1.86-.633 1.93-2.829 1.659-4.36-.17-.95-.94-1.803-1.806-2.298a2.949 2.707 0 0 0-2.945-2.609 2.949 2.707 0 0 0-.164.006 6.14 5.635 0 0 0-5.396-2.958z" style="opacity:1;fill:#006680;fill-opacity:1;stroke:none;stroke-width:3.77451324;stroke-linecap:round;stroke-linejoin:round;stroke-miterlimit:4;stroke-dasharray:none;stroke-opacity:1;paint-order:stroke fill markers" transform="matrix(.6664 0 0 .6664 152.272 -138.797)"/></g></g><path style="display:inline;opacity:1;fill:#00222b;fill-opacity:1;stroke:none;stroke-width:1.22040796;stroke-linecap:round;stroke-linejoin:round;stroke-miterlimit:4;stroke-dasharray:none;stroke-opacity:1;paint-order:stroke fill markers" d="M-222.203 309.333c-.397.843-1.265 1.27-1.94.953-.673-.318-.897-1.259-.5-2.102.397-.844 2.663-2.53 2.663-2.53s.174 2.835-.223 3.679zM-226.38 310.14c-.398.844-1.266 1.27-1.94.954-.673-.318-.898-1.259-.5-2.102.397-.844 2.662-2.53 2.662-2.53s.175 2.835-.222 3.679z" transform="matrix(.6664 0 0 .6664 154.123 -188.488)"/><path d="M-226.577 310.106c-.341.725-1.087 1.091-1.666.819-.579-.273-.771-1.081-.43-1.806.341-.724 2.287-2.173 2.287-2.173s.15 2.436-.191 3.16zM-222.4 309.298c-.341.725-1.087 1.091-1.666.819-.578-.273-.77-1.081-.43-1.806.342-.724 2.287-2.173 2.287-2.173s.15 2.436-.19 3.16z" style="opacity:1;fill:#006680;fill-opacity:1;stroke:none;stroke-width:1.04831386;stroke-linecap:round;stroke-linejoin:round;stroke-miterlimit:4;stroke-dasharray:none;stroke-opacity:1;paint-order:stroke fill markers" transform="matrix(.6664 0 0 .6664 154.123 -188.488)"/><path d="M-219.238 312.235c-.398.843-1.266 1.27-1.94.953-.673-.318-.898-1.259-.5-2.102.397-.844 2.662-2.53 2.662-2.53s.175 2.835-.222 3.679z" style="display:inline;opacity:1;fill:#00222b;fill-opacity:1;stroke:none;stroke-width:1.22040796;stroke-linecap:round;stroke-linejoin:round;stroke-miterlimit:4;stroke-dasharray:none;stroke-opacity:1;paint-order:stroke fill markers" transform="matrix(.6664 0 0 .6664 154.123 -188.488)"/><path d="M-219.435 312.2c-.341.725-1.087 1.091-1.666.819-.579-.273-.771-1.081-.43-1.806.341-.724 2.287-2.173 2.287-2.173s.15 2.436-.191 3.16z" style="opacity:1;fill:#006680;fill-opacity:1;stroke:none;stroke-width:1.04831386;stroke-linecap:round;stroke-linejoin:round;stroke-miterlimit:4;stroke-dasharray:none;stroke-opacity:1;paint-order:stroke fill markers" transform="matrix(.6664 0 0 .6664 154.123 -188.488)"/><path d="M-214.8 310.642c-.396.844-1.265 1.27-1.938.953-.674-.317-.898-1.258-.501-2.102.397-.843 2.662-2.53 2.662-2.53s.175 2.836-.222 3.68z" style="display:inline;opacity:1;fill:#00222b;fill-opacity:1;stroke:none;stroke-width:1.22040796;stroke-linecap:round;stroke-linejoin:round;stroke-miterlimit:4;stroke-dasharray:none;stroke-opacity:1;paint-order:stroke fill markers" transform="matrix(.6664 0 0 .6664 154.123 -188.488)"/><path d="M-214.996 310.608c-.341.725-1.087 1.091-1.666.819-.579-.273-.771-1.081-.43-1.806.341-.725 2.287-2.173 2.287-2.173s.15 2.435-.191 3.16z" style="opacity:1;fill:#006680;fill-opacity:1;stroke:none;stroke-width:1.04831386;stroke-linecap:round;stroke-linejoin:round;stroke-miterlimit:4;stroke-dasharray:none;stroke-opacity:1;paint-order:stroke fill markers" transform="matrix(.6664 0 0 .6664 154.123 -188.488)"/></g></svg>