<svg xmlns="http://www.w3.org/2000/svg" width="80" height="80" viewBox="0 0 21.167 21.167"><g style="display:inline;opacity:1"><g style="display:inline;opacity:1"><path style="display:inline;opacity:1;fill:#00222b;fill-opacity:1;stroke:none;stroke-width:3.97199321;stroke-linecap:round;stroke-linejoin:round;stroke-miterlimit:4;stroke-dasharray:none;stroke-opacity:1;paint-order:stroke fill markers" d="M-185.76 268.652a6.46 5.93 0 0 0-5.347 2.604 3.103 2.849 0 0 0-1.588-.406 3.103 2.849 0 0 0-3.026 2.224 3.103 2.849 0 0 0-.25-.012 3.103 2.849 0 0 0-3.103 2.849 3.103 2.849 0 0 0 .022.318l-.098.07c-.654.505-1.046 1.437-1.013 2.262.045 1.12.545 2.619 1.616 2.95 2.956.912 7.592.432 10.58.432 2.986 0 9.353.235 11.31-.432 1.958-.667 2.032-2.977 1.746-4.588-.178-1.001-.99-1.899-1.9-2.42a3.103 2.849 0 0 0-3.099-2.745 3.103 2.849 0 0 0-.173.007 6.46 5.93 0 0 0-5.678-3.112z" transform="matrix(.68904 0 0 .68113 141.389 -180.713)"/><path style="opacity:1;fill:#0084a5;fill-opacity:1;stroke:none;stroke-width:3.77451324;stroke-linecap:round;stroke-linejoin:round;stroke-miterlimit:4;stroke-dasharray:none;stroke-opacity:1;paint-order:stroke fill markers" d="M-185.905 269.003a6.14 5.635 0 0 0-5.081 2.474 2.949 2.707 0 0 0-1.51-.386 2.949 2.707 0 0 0-2.874 2.114 2.949 2.707 0 0 0-.239-.011 2.949 2.707 0 0 0-2.948 2.707 2.949 2.707 0 0 0 .021.302c-.03.023-.063.044-.093.068-.622.479-.994 1.364-.963 2.148.043 1.065.518 2.49 1.536 2.804 2.809.867 7.215.41 10.053.41 2.838 0 8.89.223 10.749-.41 1.86-.634 1.93-2.83 1.659-4.36-.17-.952-.94-1.804-1.806-2.299a2.949 2.707 0 0 0-2.945-2.609 2.949 2.707 0 0 0-.164.006 6.14 5.635 0 0 0-5.396-2.958z" transform="matrix(.68904 0 0 .68113 141.389 -180.713)"/><g style="display:inline"><path d="M-60.441 189.473a5.27 4.837 0 0 0-4.362 2.124 2.531 2.323 0 0 0-1.295-.33 2.531 2.323 0 0 0-2.468 1.813 2.531 2.323 0 0 0-.204-.01 2.531 2.323 0 0 0-2.531 2.324 2.531 2.323 0 0 0 .018.26c-.026.019-.054.037-.08.057-.534.412-.853 1.172-.826 1.845.037.913.444 2.136 1.318 2.406 2.411.744 6.193.353 8.63.353 2.435 0 7.63.19 9.226-.353 1.596-.544 1.657-2.428 1.424-3.743-.146-.816-.808-1.548-1.55-1.973a2.531 2.323 0 0 0-2.528-2.239 2.531 2.323 0 0 0-.141.006 5.27 4.837 0 0 0-4.631-2.539z" style="display:inline;opacity:1;fill:#00222b;fill-opacity:1;stroke:none;stroke-width:3.239887;stroke-linecap:round;stroke-linejoin:round;stroke-miterlimit:4;stroke-dasharray:none;stroke-opacity:1;paint-order:stroke fill markers" transform="matrix(.84474 0 0 .83505 61.187 -154.856)"/><path d="M-60.56 189.76a5.008 4.597 0 0 0-4.144 2.017 2.405 2.208 0 0 0-1.23-.314 2.405 2.208 0 0 0-2.346 1.724 2.405 2.208 0 0 0-.194-.01 2.405 2.208 0 0 0-2.405 2.209 2.405 2.208 0 0 0 .017.246c-.025.02-.051.037-.076.056-.507.39-.81 1.113-.785 1.752.035.869.422 2.03 1.252 2.287 2.292.707 5.885.335 8.2.335 2.316 0 7.251.182 8.768-.335 1.518-.517 1.575-2.308 1.353-3.557-.137-.775-.767-1.47-1.472-1.874a2.405 2.208 0 0 0-2.402-2.128 2.405 2.208 0 0 0-.135.005 5.008 4.597 0 0 0-4.4-2.413z" style="opacity:1;fill:#00aad4;fill-opacity:1;stroke:none;stroke-width:3.07880592;stroke-linecap:round;stroke-linejoin:round;stroke-miterlimit:4;stroke-dasharray:none;stroke-opacity:1;paint-order:stroke fill markers" transform="matrix(.84474 0 0 .83505 61.187 -154.856)"/></g></g><path style="opacity:1;fill:#00222b;fill-opacity:1;stroke:none;stroke-width:1.37513196;stroke-linecap:round;stroke-linejoin:round;stroke-miterlimit:4;stroke-dasharray:none;stroke-opacity:1;paint-order:stroke fill markers" d="m-177.836 333.464 3.05.047 2.678-.037-6.985 9.78-.478-.712-1.054-.494-.838-.427z" transform="matrix(.65198 0 0 .6445 125.84 -205.874)"/><path d="m-184.173 351.423 5.898-12.21 4.285.611z" style="opacity:1;fill:#00222b;fill-opacity:1;stroke:none;stroke-width:2.59735107;stroke-linecap:round;stroke-linejoin:round;stroke-miterlimit:4;stroke-dasharray:none;stroke-opacity:1;paint-order:stroke fill markers" transform="matrix(.65198 0 0 .6445 125.84 -205.874)"/><path style="opacity:1;fill:#fd5;fill-opacity:1;stroke:none;stroke-width:1.13517809;stroke-linecap:round;stroke-linejoin:round;stroke-miterlimit:4;stroke-dasharray:none;stroke-opacity:1;paint-order:stroke fill markers" d="m-177.61 334.147 2.518.039 2.21-.03-6.117 8.853-.648-.354-.87-.407-.692-.353z" transform="matrix(.65198 0 0 .6445 125.911 -206.138)"/><path style="opacity:1;fill:#fd5;fill-opacity:1;stroke:none;stroke-width:2.14412594;stroke-linecap:round;stroke-linejoin:round;stroke-miterlimit:4;stroke-dasharray:none;stroke-opacity:1;paint-order:stroke fill markers" d="m-183.212 350.24 5.17-10.325 3.509.516z" transform="matrix(.65198 0 0 .6445 125.911 -206.138)"/></g></svg>