<svg xmlns="http://www.w3.org/2000/svg" width="80" height="80" viewBox="0 0 21.167 21.167"><g style="display:inline;opacity:1"><g transform="matrix(.82836 0 0 .81794 113.02 -197.917)"><rect ry="1.415" rx="1.397" y="263.532" x="-128.607" height="1.68" width="8.856" style="opacity:1;fill:#00222b;fill-opacity:1;stroke:none;stroke-width:1.76606596;stroke-linecap:round;stroke-linejoin:round;stroke-miterlimit:4;stroke-dasharray:none;stroke-opacity:1;paint-order:stroke fill markers"/><rect style="opacity:1;fill:#006680;fill-opacity:1;stroke:none;stroke-width:1.64848208;stroke-linecap:round;stroke-linejoin:round;stroke-miterlimit:4;stroke-dasharray:none;stroke-opacity:1;paint-order:stroke fill markers" width="8.653" height="1.498" x="-128.496" y="263.627" rx="1.397" ry="1.415"/><rect style="opacity:1;fill:#00222b;fill-opacity:1;stroke:none;stroke-width:1.37841868;stroke-linecap:round;stroke-linejoin:round;stroke-miterlimit:4;stroke-dasharray:none;stroke-opacity:1;paint-order:stroke fill markers" width="5.395" height="1.68" x="-119.018" y="263.381" rx="1.397" ry="1.415"/><rect ry="1.415" rx="1.397" y="263.475" x="-118.951" height="1.498" width="5.271" style="opacity:1;fill:#006680;fill-opacity:1;stroke:none;stroke-width:1.2866441;stroke-linecap:round;stroke-linejoin:round;stroke-miterlimit:4;stroke-dasharray:none;stroke-opacity:1;paint-order:stroke fill markers"/><rect style="opacity:1;fill:#00222b;fill-opacity:1;stroke:none;stroke-width:1.70918727;stroke-linecap:round;stroke-linejoin:round;stroke-miterlimit:4;stroke-dasharray:none;stroke-opacity:1;paint-order:stroke fill markers" width="8.295" height="1.68" x="-125.012" y="266.037" rx="1.397" ry="1.415"/><rect ry="1.415" rx="1.397" y="266.131" x="-124.909" height="1.498" width="8.105" style="opacity:1;fill:#006680;fill-opacity:1;stroke:none;stroke-width:1.59539032;stroke-linecap:round;stroke-linejoin:round;stroke-miterlimit:4;stroke-dasharray:none;stroke-opacity:1;paint-order:stroke fill markers"/><rect ry="1.415" rx="1.397" y="266.066" x="-130.875" height="1.68" width="5.395" style="opacity:1;fill:#00222b;fill-opacity:1;stroke:none;stroke-width:1.37841868;stroke-linecap:round;stroke-linejoin:round;stroke-miterlimit:4;stroke-dasharray:none;stroke-opacity:1;paint-order:stroke fill markers"/><rect style="opacity:1;fill:#006680;fill-opacity:1;stroke:none;stroke-width:1.2866441;stroke-linecap:round;stroke-linejoin:round;stroke-miterlimit:4;stroke-dasharray:none;stroke-opacity:1;paint-order:stroke fill markers" width="5.271" height="1.498" x="-130.808" y="266.16" rx="1.397" ry="1.415"/><rect style="opacity:1;fill:#00222b;fill-opacity:1;stroke:none;stroke-width:1.76606596;stroke-linecap:round;stroke-linejoin:round;stroke-miterlimit:4;stroke-dasharray:none;stroke-opacity:1;paint-order:stroke fill markers" width="8.856" height="1.68" x="116.932" y="261.19" rx="1.397" ry="1.415" transform="scale(-1 1)"/><rect ry="1.415" rx="1.397" y="261.284" x="117.042" height="1.498" width="8.653" style="opacity:1;fill:#006680;fill-opacity:1;stroke:none;stroke-width:1.64848208;stroke-linecap:round;stroke-linejoin:round;stroke-miterlimit:4;stroke-dasharray:none;stroke-opacity:1;paint-order:stroke fill markers" transform="scale(-1 1)"/><rect ry="1.415" rx="1.397" y="261.038" x="126.52" height="1.68" width="5.395" style="opacity:1;fill:#00222b;fill-opacity:1;stroke:none;stroke-width:1.37841868;stroke-linecap:round;stroke-linejoin:round;stroke-miterlimit:4;stroke-dasharray:none;stroke-opacity:1;paint-order:stroke fill markers" transform="scale(-1 1)"/><rect style="opacity:1;fill:#006680;fill-opacity:1;stroke:none;stroke-width:1.2866441;stroke-linecap:round;stroke-linejoin:round;stroke-miterlimit:4;stroke-dasharray:none;stroke-opacity:1;paint-order:stroke fill markers" width="5.271" height="1.498" x="126.587" y="261.133" rx="1.397" ry="1.415" transform="scale(-1 1)"/></g><g style="display:inline"><path d="M-213.973 217.032a6.46 5.93 0 0 0-5.346 2.603 3.103 2.849 0 0 0-1.588-.405 3.103 2.849 0 0 0-3.026 2.224 3.103 2.849 0 0 0-.25-.012 3.103 2.849 0 0 0-3.103 2.848 3.103 2.849 0 0 0 .022.318c-.032.024-.066.047-.098.072-.654.504-1.046 1.435-1.013 2.26.045 1.121.545 2.62 1.616 2.95 2.956.913 7.592.433 10.579.433 2.987 0 9.354.234 11.312-.432 1.957-.667 2.031-2.977 1.745-4.589-.178-1-.99-1.898-1.9-2.418a3.103 2.849 0 0 0-3.099-2.746 3.103 2.849 0 0 0-.173.007 6.46 5.93 0 0 0-5.678-3.112z" style="display:inline;opacity:1;fill:#00222b;fill-opacity:1;stroke:none;stroke-width:3.97199321;stroke-linecap:round;stroke-linejoin:round;stroke-miterlimit:4;stroke-dasharray:none;stroke-opacity:1;paint-order:stroke fill markers" transform="matrix(.82836 0 0 .81794 189.293 -173.842)"/><path d="M-214.117 217.382a6.14 5.635 0 0 0-5.081 2.474 2.949 2.707 0 0 0-1.51-.385 2.949 2.707 0 0 0-2.875 2.114 2.949 2.707 0 0 0-.238-.011 2.949 2.707 0 0 0-2.948 2.707 2.949 2.707 0 0 0 .021.302c-.03.023-.063.044-.094.068-.621.479-.993 1.364-.962 2.148.043 1.065.518 2.49 1.536 2.803 2.809.867 7.215.412 10.053.412 2.838 0 8.89.222 10.749-.412 1.86-.633 1.93-2.829 1.659-4.36-.17-.95-.94-1.803-1.806-2.298a2.949 2.707 0 0 0-2.945-2.609 2.949 2.707 0 0 0-.164.006 6.14 5.635 0 0 0-5.396-2.958z" style="opacity:1;fill:#006680;fill-opacity:1;stroke:none;stroke-width:3.77451324;stroke-linecap:round;stroke-linejoin:round;stroke-miterlimit:4;stroke-dasharray:none;stroke-opacity:1;paint-order:stroke fill markers" transform="matrix(.82836 0 0 .81794 189.293 -173.842)"/></g></g></svg>